<svg width="100" height="110" viewBox="0 0 100 110" fill="none" xmlns="http://www.w3.org/2000/svg">
<path d="M34.644 24.4V19.3C34.644 15.2422 36.256 11.3506 39.1253 8.48127C41.9946 5.61196 45.8862 4 49.944 4C54.0019 4 57.8935 5.61196 60.7628 8.48127C63.6321 11.3506 65.244 15.2422 65.244 19.3V24.4M55.044 75.4V44.8" stroke="#FF9900" stroke-width="7" stroke-linecap="round"/>
<path d="M44.844 85.6C50.4773 85.6 55.044 81.0333 55.044 75.4C55.044 69.7666 50.4773 65.2 44.844 65.2C39.2107 65.2 34.644 69.7666 34.644 75.4C34.644 81.0333 39.2107 85.6 44.844 85.6Z" stroke="#FF9900" stroke-width="7"/>
<path d="M65.2442 55C62.539 55 59.9446 53.9254 58.0317 52.0125C56.1188 50.0997 55.0442 47.5053 55.0442 44.8" stroke="#FF9900" stroke-width="7" stroke-linecap="round"/>
<path d="M91.8863 57.6826C88.8977 41.7655 87.4085 33.8044 81.7373 29.1022C76.0814 24.4 67.9826 24.4 51.7799 24.4H48.1079C31.9103 24.4 23.8115 24.4 18.1454 29.1022C12.4844 33.8044 10.9901 41.7655 8.00152 57.6826C3.80422 80.0665 1.70812 91.2559 7.82812 98.6305C13.9481 106 25.3313 106 48.1028 106H51.785C74.5565 106 85.9448 106 92.0597 98.6305C95.6093 94.3465 96.3947 88.7875 95.6093 80.5" stroke="#FF9900" stroke-width="7" stroke-linecap="round"/>
</svg>
